<svg width="13" height="12" viewBox="0 0 13 12" fill="none" xmlns="http://www.w3.org/2000/svg">
<path d="M11.3576 3.32345C11.2005 2.95974 10.974 2.63015 10.6908 2.35313C10.4073 2.07529 10.0732 1.85449 9.7064 1.70274C9.3261 1.54477 8.91821 1.4639 8.5064 1.46485C7.92867 1.46485 7.365 1.62306 6.87515 1.92188C6.75797 1.99337 6.64664 2.07188 6.54117 2.15743C6.4357 2.07188 6.32437 1.99337 6.20718 1.92188C5.71734 1.62306 5.15367 1.46485 4.57593 1.46485C4.15992 1.46485 3.75679 1.54454 3.37593 1.70274C3.00796 1.85509 2.67632 2.07423 2.39156 2.35313C2.10796 2.62984 1.88142 2.9595 1.72476 3.32345C1.56187 3.70196 1.47867 4.10391 1.47867 4.51759C1.47867 4.90782 1.55836 5.31446 1.71656 5.72813C1.84898 6.07384 2.03882 6.43243 2.2814 6.79454C2.66578 7.36759 3.19429 7.96524 3.85054 8.5711C4.93804 9.5754 6.015 10.2691 6.0607 10.2973L6.33843 10.4754C6.46148 10.5539 6.61968 10.5539 6.74273 10.4754L7.02047 10.2973C7.06617 10.268 8.14195 9.5754 9.23062 8.5711C9.88687 7.96524 10.4154 7.36759 10.7998 6.79454C11.0423 6.43243 11.2334 6.07384 11.3646 5.72813C11.5228 5.31446 11.6025 4.90782 11.6025 4.51759C11.6037 4.10391 11.5205 3.70196 11.3576 3.32345Z" fill="#718096"/>
</svg>
