<svg width="15" height="14" viewBox="0 0 15 14" fill="none" xmlns="http://www.w3.org/2000/svg">
<path d="M11.9449 6.41482C11.6795 5.81743 11.2936 5.28125 10.8115 4.83982L10.4136 4.47478C10.4001 4.46272 10.3839 4.45417 10.3663 4.44986C10.3487 4.44556 10.3303 4.44564 10.3128 4.45009C10.2952 4.45455 10.279 4.46324 10.2656 4.47541C10.2522 4.48758 10.242 4.50286 10.2359 4.51989L10.0582 5.02985C9.94742 5.34978 9.74371 5.67653 9.45523 5.99782C9.43609 6.01833 9.41422 6.0238 9.39918 6.02517C9.38414 6.02653 9.36089 6.0238 9.34039 6.00466C9.32125 5.98825 9.31168 5.96364 9.31304 5.93903C9.36363 5.11599 9.11754 4.18767 8.57886 3.17732C8.13316 2.33786 7.51382 1.68298 6.74 1.22634L6.17535 0.894112C6.10152 0.850362 6.00718 0.907784 6.01129 0.993917L6.04136 1.65017C6.06187 2.0986 6.00992 2.49509 5.88687 2.82458C5.73648 3.2279 5.52046 3.60251 5.24429 3.93884C5.0521 4.17258 4.83426 4.38399 4.59488 4.56911C4.01834 5.01231 3.54955 5.58019 3.22359 6.23025C2.89844 6.88597 2.72906 7.6079 2.72867 8.33982C2.72867 8.98513 2.85582 9.60993 3.10738 10.1992C3.35028 10.7665 3.70082 11.2814 4.13961 11.7154C4.58257 12.1529 5.09664 12.4974 5.66949 12.7367C6.26285 12.9855 6.89175 13.1113 7.54117 13.1113C8.19058 13.1113 8.81949 12.9855 9.41285 12.7381C9.98429 12.5002 10.5039 12.1533 10.9427 11.7168C11.3857 11.2793 11.733 10.7679 11.975 10.2006C12.2261 9.61291 12.355 8.98026 12.3537 8.34118C12.3537 7.67399 12.2169 7.02595 11.9449 6.41482Z" fill="#718096"/>
</svg>
